HIERARCHY
ROOT Hips
{
	OFFSET 0.000000 88.474243 0.000000
	CHANNELS 6 Xposition Yposition Zposition Zrotation Yrotation Xrotation 
	JOINT Hips_Spine
	{
		OFFSET 0.000000 0.000000 0.000000
		CHANNELS 3 Zrotation Yrotation Xrotation
		JOINT Spine
		{
			OFFSET 0.005100 8.711998 -0.691000
			CHANNELS 3 Zrotation Yrotation Xrotation
			JOINT Spine1
			{
				OFFSET -0.009200 8.660301 -1.275000
				CHANNELS 3 Zrotation Yrotation Xrotation
				JOINT Spine2
				{
					OFFSET 0.006300 9.852501 -1.857000
					CHANNELS 3 Zrotation Yrotation Xrotation
					JOINT Spine2_Neck
					{
						OFFSET 0.000000 0.000000 0.000000
						CHANNELS 3 Zrotation Yrotation Xrotation
						JOINT Neck
						{
							OFFSET 0.016300 11.420799 -0.263300
							CHANNELS 3 Zrotation Yrotation Xrotation
							End Site #name: Head
							{
								OFFSET -0.019200 9.262405 2.362500
							}
						}
					}
					JOINT Spine2_LeftShoulder
					{
						OFFSET 0.000000 0.000000 0.000000
						CHANNELS 3 Zrotation Yrotation Xrotation
						JOINT LeftShoulder
						{
							OFFSET 5.616900 6.732201 -0.345700
							CHANNELS 3 Zrotation Yrotation Xrotation
							JOINT LeftArm
							{
								OFFSET 10.664888 -0.183372 -2.440700
								CHANNELS 3 Zrotation Yrotation Xrotation
								JOINT LeftForeArm
								{
									OFFSET 27.459126 0.000000 0.000000
									CHANNELS 3 Zrotation Yrotation Xrotation
									End Site #name: LeftHand
									{
										OFFSET 21.306858 0.000000 0.000000
									}
								}
							}
						}
					}
					JOINT Spine2_RightShoulder
					{
						OFFSET 0.000000 0.000000 0.000000
						CHANNELS 3 Zrotation Yrotation Xrotation
						JOINT RightShoulder
						{
							OFFSET -5.580300 6.737503 -0.344400
							CHANNELS 3 Zrotation Yrotation Xrotation
							JOINT RightArm
							{
								OFFSET -10.679335 -0.188484 -2.383900
								CHANNELS 3 Zrotation Yrotation Xrotation
								JOINT RightForeArm
								{
									OFFSET -27.503529 0.000000 0.000000
									CHANNELS 3 Zrotation Yrotation Xrotation
									End Site #name: RightHand
									{
										OFFSET -21.306808 0.000000 0.000000
									}
								}
							}
						}
					}
				}
			}
		}
	}
	JOINT Hips_LeftUpLeg
	{
		OFFSET 0.000000 0.000000 0.000000
		CHANNELS 3 Zrotation Yrotation Xrotation
		JOINT LeftUpLeg
		{
			OFFSET 6.857700 -6.739601 0.312100
			CHANNELS 3 Zrotation Yrotation Xrotation
			JOINT LeftLeg
			{
				OFFSET -0.367590 -34.731552 -4.572400
				CHANNELS 3 Zrotation Yrotation Xrotation
				End Site #name: LeftFoot
				{
					OFFSET 0.367590 -34.656704 -6.067400
				}
			}
		}
	}
	JOINT Hips_RightUpLeg
	{
		OFFSET 0.000000 0.000000 0.000000
		CHANNELS 3 Zrotation Yrotation Xrotation
		JOINT RightUpLeg
		{
			OFFSET -6.876100 -6.733299 0.301000
			CHANNELS 3 Zrotation Yrotation Xrotation
			JOINT RightLeg
			{
				OFFSET 0.347353 -34.795158 -4.515900
				CHANNELS 3 Zrotation Yrotation Xrotation
				End Site #name: RightFoot
				{
					OFFSET -0.347353 -34.589367 -6.070300
				}
			}
		}
	}
}
MOTION
Frames: 17
Frame Time: 0.041667
0.187158 0.069691 0.084882 -2.923426 -10.597791 -3.511897 -0.000000 -0.000000 -0.000000 2.658298 -3.389987 7.985060 3.430533 -1.149248 5.586836 0.000000 0.000000 0.000000 -1.692290 2.439334 2.896075 -0.359217 2.720345 8.310411 1.076203 -0.938555 -1.353646 -0.248031 -7.504552 1.535732 -74.551261 -55.800367 28.456134 -1.129098 -54.952014 1.368366 -1.368966 0.016042 1.769240 9.181521 -0.838820 8.195579 36.950201 14.181478 23.672152 -178.340582 67.930624 -176.177780 0.000000 0.000000 0.000000 10.620153 13.394810 -40.452819 6.312959 -0.286538 55.029381 0.000000 -0.000000 -0.000000 1.546889 -5.625373 -28.558944 -1.656518 -8.905071 30.967738 
0.398833 -0.131891 -0.128896 -2.594786 -17.050268 -4.963876 -0.000000 -0.000000 -0.000000 2.435369 -1.897781 9.873555 2.252069 -1.238253 0.256058 0.000000 0.000000 0.000000 -0.282636 1.003930 2.548589 -3.419397 1.406571 8.633089 1.257087 -0.043546 -2.811593 2.158205 -12.648064 1.451981 -65.341721 -54.520613 17.089129 -0.263030 -51.220279 -0.469005 -0.960587 0.280357 2.294294 9.799854 6.025134 3.705858 43.123717 22.615865 11.349493 -178.265614 64.424405 -176.654292 0.000000 0.000000 0.000000 9.656974 11.997018 -39.762694 7.607308 0.490077 52.982811 0.000000 -0.000000 -0.000000 2.488140 -3.435773 -23.352933 -0.142178 -4.712806 30.649259 
0.554859 -0.174022 -0.209637 -2.686889 -19.412199 -6.361706 -0.000000 -0.000000 -0.000000 2.673472 -2.081715 11.391236 2.555817 -0.936535 0.202524 0.000000 0.000000 0.000000 -0.487051 0.898306 2.673463 -3.775666 0.225727 6.114421 1.530672 -0.763750 -3.494068 3.703370 -12.951448 1.626942 -62.108898 -54.578125 8.037568 0.428505 -54.743922 -3.132673 -1.463158 0.295048 2.458037 10.376466 7.368009 2.999861 47.167657 28.953781 12.948709 -178.482379 69.361618 -176.120705 -0.000000 0.000000 0.000000 9.235298 10.993015 -39.747238 7.133693 0.653747 53.661327 0.000000 -0.000000 -0.000000 1.819038 -4.865584 -23.308198 -0.633444 -5.163259 29.823017 
0.707750 -0.197037 -0.258345 -2.340660 -21.113239 -7.080432 -0.000000 -0.000000 -0.000000 2.792749 -2.058404 11.868618 2.924006 -1.094373 -0.004229 0.000000 0.000000 0.000000 -0.428176 0.950920 2.635282 -3.737135 0.059199 5.354283 1.803536 -1.150534 -4.029454 4.444210 -13.890036 1.651813 -62.930112 -55.990441 5.307549 0.825761 -57.388666 -3.578118 -1.659690 0.307000 2.220279 8.997136 8.432858 2.779391 48.109848 32.345644 7.794196 -177.421568 73.695992 -174.933292 -0.000000 0.000000 0.000000 9.160081 10.496794 -39.656948 6.603775 0.879477 54.399719 -0.000000 -0.000000 -0.000000 1.378626 -4.397682 -24.537744 -1.525556 -5.382401 32.016102 
0.856679 -0.214672 -0.297062 -2.176609 -22.167884 -7.327843 -0.000000 -0.000000 -0.000000 2.882510 -1.987196 12.271991 3.258866 -1.222269 -0.208545 0.000000 0.000000 0.000000 -0.328431 0.797629 2.698458 -3.531798 -0.027441 5.083084 2.160424 -1.720620 -4.470682 5.127447 -15.224391 1.604871 -63.663058 -56.725788 3.569514 0.668625 -59.756455 -3.093145 -1.743583 0.236302 2.269681 7.882697 9.596902 2.660260 51.269536 32.952215 2.109339 -174.765884 79.546313 -172.268599 -0.000000 0.000000 0.000000 9.339526 10.209525 -39.506043 6.041058 1.017855 54.993074 -0.000000 -0.000000 -0.000000 0.852214 -3.491808 -25.514479 -2.680536 -5.433047 34.892235 
0.996432 -0.228786 -0.332478 -2.148272 -22.827181 -7.489856 -0.000000 -0.000000 -0.000000 2.978072 -1.932524 12.666610 3.517172 -1.332369 -0.340406 0.000000 0.000000 0.000000 -0.234459 0.574142 2.834951 -3.299577 -0.037782 4.933782 2.431679 -2.197729 -4.640699 5.648877 -16.230884 1.566207 -64.452761 -57.095490 2.571273 0.528046 -60.262676 -2.796729 -1.810964 0.145977 2.524667 7.113421 10.616668 2.499789 53.822389 33.403801 -2.172095 -165.673425 85.228480 -163.232504 -0.000000 0.000000 0.000000 9.439380 10.079297 -39.505101 5.576617 1.036910 55.616934 -0.000000 -0.000000 -0.000000 0.374821 -3.196779 -24.997743 -3.366529 -5.395999 37.128412 
1.123725 -0.234275 -0.366355 -2.151048 -23.150092 -7.607598 -0.000000 -0.000000 -0.000000 3.092035 -1.864846 13.330130 3.685714 -1.379232 -0.228444 0.000000 0.000000 0.000000 -0.204543 0.411417 3.003515 -3.063372 0.157186 4.893350 2.575300 -2.466978 -4.581309 5.861596 -16.694591 1.526715 -65.161312 -57.140136 2.153850 0.423367 -60.044243 -2.740396 -1.836157 0.083927 2.803228 6.722008 11.046643 2.280931 55.320512 33.074652 -5.607671 -34.820204 87.601007 -32.484858 -0.000000 0.000000 0.000000 9.462006 10.089093 -39.599521 5.332257 1.046064 55.947437 -0.000000 -0.000000 -0.000000 0.158839 -3.140928 -24.655120 -3.591462 -5.311901 38.202074 
1.233288 -0.230562 -0.401306 -2.120922 -23.227992 -7.674478 -0.000000 -0.000000 -0.000000 3.132540 -1.821729 13.888733 3.771963 -1.397540 -0.035279 0.000000 0.000000 0.000000 -0.226931 0.310255 3.213623 -3.060351 0.327189 5.106406 2.628963 -2.582982 -4.402643 5.851724 -16.778515 1.434241 -65.631991 -56.920270 2.035350 0.322954 -60.264395 -2.696320 -1.843695 0.031281 2.945212 6.502189 11.179436 2.114315 56.313996 31.724742 -7.477335 -11.205949 82.225154 -8.997469 -0.000000 0.000000 0.000000 9.394061 10.192810 -39.677818 5.260629 1.058287 56.093106 -0.000000 -0.000000 -0.000000 0.027727 -3.144614 -24.590109 -3.695295 -5.283185 38.865662 
1.319025 -0.219043 -0.436865 -2.077992 -23.142957 -7.720347 -0.000000 -0.000000 -0.000000 3.167300 -1.844331 14.291479 3.798756 -1.433741 0.134134 0.000000 0.000000 0.000000 -0.281080 0.242271 3.409776 -3.213598 0.483344 5.364741 2.625380 -2.613323 -4.256166 5.744300 -16.613613 1.333820 -65.993211 -56.676865 2.138595 0.293218 -60.445543 -2.727325 -1.852713 -0.012347 3.062071 6.355251 11.093902 1.970678 56.761704 30.332583 -8.758224 -8.121534 78.562581 -5.995956 -0.000000 0.000000 0.000000 9.281942 10.332320 -39.761708 5.280532 1.066015 56.166452 -0.000000 -0.000000 -0.000000 -0.085108 -3.097466 -24.673922 -3.809532 -5.308978 39.365608 
1.383036 -0.201512 -0.471284 -2.035996 -23.036192 -7.776752 -0.000000 -0.000000 -0.000000 3.165367 -1.883700 14.544607 3.761987 -1.471837 0.257145 0.000000 0.000000 0.000000 -0.344804 0.184627 3.582361 -3.379176 0.615568 5.598226 2.576121 -2.599463 -4.148554 5.621053 -16.416671 1.256375 -66.686070 -56.684041 2.796389 0.281515 -60.635583 -2.763999 -1.867106 -0.032266 3.172299 6.421832 10.996003 1.900755 56.978577 29.379721 -9.528497 -6.904902 75.886322 -4.851770 -0.000000 0.000000 0.000000 9.177146 10.455067 -39.826621 5.310362 1.066191 56.202685 -0.000000 -0.000000 -0.000000 -0.196360 -3.037303 -24.748318 -3.920698 -5.339476 39.862353 
1.427868 -0.178382 -0.503479 -2.010386 -22.925028 -7.846693 -0.000000 -0.000000 -0.000000 3.148695 -1.917169 14.685342 3.699125 -1.504065 0.328422 0.000000 0.000000 0.000000 -0.410125 0.142038 3.719814 -3.512671 0.742006 5.782477 2.501996 -2.570704 -4.060418 5.527385 -16.251325 1.204545 -67.172930 -56.820158 3.225380 0.283290 -60.795090 -2.802721 -1.886110 -0.039847 3.302115 6.493472 10.957344 1.877599 57.215261 28.424332 -9.798909 -6.171759 73.884453 -4.179771 -0.000000 0.000000 0.000000 9.108182 10.548050 -39.856949 5.328151 1.067738 56.210473 -0.000000 -0.000000 -0.000000 -0.296586 -3.008045 -24.770948 -4.046768 -5.353718 40.349850 
1.456431 -0.150143 -0.532547 -2.002944 -22.822135 -7.926503 -0.000000 -0.000000 -0.000000 3.116426 -1.944940 14.718793 3.614514 -1.534541 0.357828 0.000000 0.000000 0.000000 -0.472080 0.117300 3.826986 -3.627840 0.820957 5.892308 2.423203 -2.537997 -4.006857 5.452978 -16.121419 1.175225 -67.546566 -56.937471 3.526852 0.296558 -60.865988 -2.845671 -1.903010 -0.037446 3.399587 6.560122 10.949716 1.877012 57.532066 27.750290 -9.893267 -5.903525 73.221897 -3.940885 -0.000000 0.000000 0.000000 9.071974 10.602268 -39.860524 5.337851 1.070950 56.194215 -0.000000 -0.000000 -0.000000 -0.365626 -3.008976 -24.738162 -4.179163 -5.350328 40.791571 
1.471667 -0.117935 -0.557733 -2.003060 -22.733488 -8.015829 -0.000000 -0.000000 -0.000000 3.078181 -1.964252 14.674603 3.520010 -1.552667 0.344721 0.000000 0.000000 0.000000 -0.519274 0.096701 3.882699 -3.680574 0.866028 5.943620 2.348609 -2.525367 -3.983020 5.402686 -16.038462 1.163482 -67.818665 -57.012119 3.726343 0.307481 -60.935743 -2.871249 -1.914750 -0.028713 3.455899 6.646141 10.999866 1.906672 57.962630 27.436701 -9.992577 -5.684009 72.781850 -3.735447 -0.000000 0.000000 0.000000 9.065929 10.634497 -39.839457 5.345672 1.075155 56.146571 -0.000000 -0.000000 -0.000000 -0.411538 -3.003399 -24.670617 -4.306697 -5.327279 41.169469 
1.475848 -0.082708 -0.579293 -2.008425 -22.648378 -8.101804 -0.000000 -0.000000 -0.000000 3.040862 -1.976781 14.600399 3.427746 -1.562845 0.309645 0.000000 0.000000 0.000000 -0.553039 0.077156 3.909323 -3.680098 0.896465 5.955562 2.278426 -2.519419 -3.969336 5.358531 -15.978124 1.169708 -68.007947 -57.058555 3.844927 0.312256 -60.984732 -2.884038 -1.923628 -0.019945 3.482315 6.718075 11.093544 1.939176 58.425898 27.303771 -10.134545 -5.499922 72.422190 -3.561178 -0.000000 0.000000 0.000000 9.069938 10.650011 -39.818645 5.348470 1.080156 56.090337 -0.000000 -0.000000 -0.000000 -0.434101 -2.994427 -24.590336 -4.414541 -5.301193 41.469362 
1.470901 -0.045284 -0.597348 -2.010839 -22.570670 -8.186667 -0.000000 -0.000000 -0.000000 3.000862 -1.987304 14.515700 3.343903 -1.566105 0.273997 0.000000 0.000000 0.000000 -0.574103 0.057492 3.927696 -3.642809 0.919448 5.942365 2.218367 -2.516745 -3.954161 5.316202 -15.944647 1.182936 -68.183037 -57.090048 3.932533 0.306219 -60.986154 -2.876581 -1.928194 -0.012630 3.505464 6.791765 11.172220 1.969233 58.774314 27.281672 -10.382411 -5.329020 72.075916 -3.393017 -0.000000 0.000000 0.000000 9.083953 10.662510 -39.783820 5.350545 1.084162 56.027599 -0.000000 -0.000000 -0.000000 -0.446484 -2.985917 -24.514093 -4.487441 -5.265484 41.690967 
1.458641 -0.006656 -0.612094 -2.006312 -22.486024 -8.266663 -0.000000 -0.000000 -0.000000 2.959680 -1.995105 14.431933 3.269464 -1.561837 0.252937 0.000000 0.000000 0.000000 -0.584534 0.037829 3.953445 -3.581624 0.934079 5.929206 2.163881 -2.510518 -3.927744 5.270783 -15.925899 1.204822 -68.330475 -57.121624 4.005529 0.291843 -60.977628 -2.857062 -1.930980 -0.007966 3.533889 6.849003 11.234282 1.994853 59.007017 27.304063 -10.741406 -5.156867 71.713468 -3.217218 -0.000000 0.000000 0.000000 9.092831 10.680403 -39.749815 5.354360 1.085286 55.976689 -0.000000 -0.000000 -0.000000 -0.454811 -2.973422 -24.449827 -4.537977 -5.231015 41.846318 
1.440654 0.032768 -0.623705 -1.994771 -22.403116 -8.345247 -0.000000 -0.000000 -0.000000 2.919025 -2.001350 14.359178 3.203447 -1.552857 0.246804 0.000000 0.000000 0.000000 -0.585224 0.022981 3.987737 -3.511161 0.940944 5.915442 2.115779 -2.496302 -3.888396 5.225989 -15.916461 1.226218 -68.500923 -57.168753 4.078677 0.277022 -60.946429 -2.838849 -1.931127 -0.006192 3.571706 6.882811 11.268886 2.016389 59.123513 27.293309 -11.196610 -4.988692 71.322214 -3.039317 -0.000000 0.000000 0.000000 9.099120 10.699744 -39.713971 5.357177 1.084384 55.939905 -0.000000 -0.000000 -0.000000 -0.463131 -2.963742 -24.398196 -4.572779 -5.203829 41.946111 
